<svg version="1.1" xmlns="http://www.w3.org/2000/svg" xmlns:xlink="http://www.w3.org/1999/xlink" viewBox="0, 0, 600, 600">
	<g>
		<path d="M189.71,202.61 L316.21,129.62 C317.46,128.9 318.23,127.57 318.23,126.12 L318.24,82.35 C318.24,75.87 315.58,69.45 310.41,65.54 C303.72,60.48 295.13,59.98 288.08,64.06 L111.13,166.17 C104.91,169.76 101.07,176.4 101.07,183.58 L101,414.18 C101,420.65 103.65,427.07 108.81,430.99 C115.49,436.06 124.1,436.56 131.16,432.48 L168.64,410.86 C169.89,410.14 170.66,408.81 170.66,407.36 L170.71,235.51 C170.71,221.93 177.95,209.4 189.71,202.61 z" fill="#FFC11E"/>
		<path d="M492.95,169.53 C489.8,167.71 486.34,166.8 482.89,166.8 C479.44,166.8 475.99,167.71 472.84,169.53 L295.88,271.63 C289.68,275.21 285.82,281.88 285.82,289.04 L285.75,520.51 C285.75,527.78 289.51,534.29 295.8,537.93 C302.1,541.57 309.61,541.57 315.91,537.93 L492.86,435.82 C499.06,432.24 502.92,425.57 502.92,418.41 L503,186.95 C503,179.68 499.24,173.16 492.95,169.53 z" fill="#EF1161"/>
		<path d="M286.95,256.14 L403.73,188.76 C404.98,188.04 405.75,186.71 405.75,185.26 L405.77,134.28 C405.77,127.8 403.11,121.38 397.94,117.47 C391.25,112.41 382.67,111.92 375.61,115.99 L327.18,143.94 L198.64,218.1 C192.42,221.69 188.58,228.33 188.58,235.51 L188.53,409.69 L188.51,466.1 C188.51,472.58 191.16,478.99 196.32,482.91 C203.01,487.98 211.61,488.48 218.67,484.4 L265.87,457.16 C267.12,456.44 267.89,455.11 267.89,453.66 L267.94,289.02 C267.95,275.46 275.19,262.92 286.95,256.14 z" fill="#FC6E6B"/>
	</g>
</svg>
