<svg xmlns="http://www.w3.org/2000/svg" viewBox="0 0 451 260.81">
    <g>
        <g>
            <polygon stroke="#dce0df" stroke-linejoin="round" fill="#5e97f6" points="50.5 130.4 25.5 173.71 75.5 173.71 100.5 130.4 50.5 130.4" />
            <polygon stroke="#dce0df" stroke-linejoin="round" fill="#5e97f6" points="0.5 217.01 25.5 173.71 75.5 173.71 50.5 217.01 0.5 217.01" />
            <polygon stroke="#dce0df" stroke-linejoin="round" fill="#5e97f6" points="125.5 173.71 75.5 173.71 50.5 217.01 100.5 217.01 125.5 173.71" />
            <polygon stroke="#dce0df" stroke-linejoin="round" fill="#5e97f6" points="175.5 173.71 125.5 173.71 100.5 217.01 150.5 217.01 175.5 173.71" />
            <polygon stroke="#dce0df" stroke-linejoin="round" fill="#5e97f6" points="150.5 130.4 125.5 173.71 175.5 173.71 200.5 130.4 150.5 130.4" />
            <polygon stroke="#dce0df" stroke-linejoin="round" fill="#5e97f6" points="175.5 87.1 150.5 130.4 200.5 130.4 225.5 87.1 175.5 87.1" />
            <polygon stroke="#dce0df" stroke-linejoin="round" fill="#5e97f6" points="200.5 43.8 175.5 87.1 225.5 87.1 250.5 43.8 200.5 43.8" />
            <polygon stroke="#dce0df" stroke-linejoin="round" fill="#5e97f6" points="225.5 0.5 200.5 43.8 250.5 43.8 275.5 0.5 225.5 0.5" />
            <polygon stroke="#dce0df" stroke-linejoin="round" fill="#2a56c6" points="0.5 217.01 25.5 260.31 75.5 260.31 50.5 217.01 0.5 217.01" />
            <polygon stroke="#dce0df" stroke-linejoin="round" fill="#2a56c6" points="125.5 260.31 75.5 260.31 50.5 217.01 100.5 217.01 125.5 260.31" />
            <polygon stroke="#dce0df" stroke-linejoin="round" fill="#2a56c6" points="175.5 260.31 125.5 260.31 100.5 217.01 150.5 217.01 175.5 260.31" />
            <polygon stroke="#dce0df" stroke-linejoin="round" fill="#00796b" points="200.5 217.01 175.5 173.71 150.5 217.01 175.5 260.31 200.5 217.01" />
            <polygon stroke="#dce0df" stroke-linejoin="round" fill="#00796b" points="250.5 130.4 225.5 87.1 200.5 130.4 250.5 130.4" />
            <polygon stroke="#dce0df" stroke-linejoin="round" fill="#00796b" points="250.5 43.8 225.5 87.1 250.5 130.4 275.5 87.1 250.5 43.8" />
            <polygon stroke="#dce0df" stroke-linejoin="round" fill="#3367d6" points="125.5 173.71 100.5 130.4 75.5 173.71 125.5 173.71" />
            <polygon stroke="#dce0df" stroke-linejoin="round" fill="#26a69a" points="250.5 130.4 200.5 130.4 175.5 173.71 225.5 173.71 250.5 130.4" />
            <polygon stroke="#dce0df" stroke-linejoin="round" fill="#26a69a" points="300.5 130.4 250.5 130.4 225.5 173.71 275.5 173.71 300.5 130.4" />
            <polygon stroke="#dce0df" stroke-linejoin="round" fill="#9c27b0" points="350.5 43.8 325.5 0.5 300.5 43.8 325.5 87.1 350.5 43.8" />
            <polygon stroke="#dce0df" stroke-linejoin="round" fill="#9c27b0" points="375.5 87.1 350.5 43.8 325.5 87.1 350.5 130.4 375.5 87.1" />
            <polygon stroke="#dce0df" stroke-linejoin="round" fill="#9c27b0" points="400.5 130.4 375.5 87.1 350.5 130.4 375.5 173.71 400.5 130.4" />
            <polygon stroke="#dce0df" stroke-linejoin="round" fill="#9c27b0" points="425.5 173.71 400.5 130.4 375.5 173.71 400.5 217.01 425.5 173.71" />
            <polygon stroke="#dce0df" stroke-linejoin="round" fill="#9c27b0" points="450.5 217.01 425.5 173.71 400.5 217.01 425.5 260.31 450.5 217.01" />
            <polygon stroke="#dce0df" stroke-linejoin="round" fill="#9c27b0" points="425.5 0.5 400.5 43.8 425.5 87.1 450.5 43.8 425.5 0.5" />
            <polygon stroke="#dce0df" stroke-linejoin="round" fill="#9c27b0" points="375.5 87.1 400.5 43.8 425.5 87.1 400.5 130.4 375.5 87.1" />
            <polygon stroke="#dce0df" stroke-linejoin="round" fill="#9c27b0" points="350.5 130.4 325.5 173.71 350.5 217.01 375.5 173.71 350.5 130.4" />
            <polygon stroke="#dce0df" stroke-linejoin="round" fill="#9c27b0" points="325.5 260.31 300.5 217.01 325.5 173.71 350.5 217.01 325.5 260.31" />
            <polygon stroke="#dce0df" stroke-linejoin="round" fill="#6a1b9a" points="275.5 260.31 250.5 217.01 300.5 217.01 325.5 260.31 275.5 260.31" />
            <polygon stroke="#dce0df" stroke-linejoin="round" fill="#00695c" points="225.5 173.71 175.5 173.71 200.5 217.01 250.5 217.01 225.5 173.71" />
            <polygon stroke="#dce0df" stroke-linejoin="round" fill="#00695c" points="275.5 173.71 225.5 173.71 250.5 217.01 275.5 173.71" />
            <polygon stroke="#dce0df" stroke-linejoin="round" fill="#00695c" points="275.5 87.1 300.5 130.4 350.5 130.4 325.5 87.1 275.5 87.1" />
            <polygon stroke="#dce0df" stroke-linejoin="round" fill="#00695c" points="300.5 43.8 250.5 43.8 275.5 87.1 325.5 87.1 300.5 43.8" />
            <polygon stroke="#dce0df" stroke-linejoin="round" fill="#00695c" points="425.5 260.31 400.5 217.01 350.5 217.01 375.5 260.31 425.5 260.31" />
            <polygon stroke="#dce0df" stroke-linejoin="round" fill="#00695c" points="375.5 173.71 350.5 217.01 400.5 217.01 375.5 173.71" />
            <polygon stroke="#dce0df" stroke-linejoin="round" fill="#ea80fc" points="325.5 0.5 275.5 0.5 250.5 43.8 300.5 43.8 325.5 0.5" />
            <polygon stroke="#dce0df" stroke-linejoin="round" fill="#ea80fc" points="325.5 173.71 275.5 173.71 250.5 217.01 300.5 217.01 325.5 173.71" />
            <polygon stroke="#dce0df" stroke-linejoin="round" fill="#ea80fc" points="350.5 130.4 300.5 130.4 275.5 173.71 325.5 173.71 350.5 130.4" />
            <polygon stroke="#dce0df" stroke-linejoin="round" fill="#ea80fc" points="425.5 0.5 375.5 0.5 350.5 43.8 400.5 43.8 425.5 0.5" />
            <polygon stroke="#dce0df" stroke-linejoin="round" fill="#ea80fc" points="375.5 87.1 350.5 43.8 400.5 43.8 375.5 87.1" />
        </g>
    </g>
</svg>
