<svg version="1.1" xmlns="http://www.w3.org/2000/svg" xmlns:xlink="http://www.w3.org/1999/xlink" viewBox="0, 0, 300, 300">
  <g>
    <path d="M132.38,82.4 L95.25,63.66 L54.49,84 L92.63,103.15 L132.38,82.4 z" fill="#4DABCF"/>
    <path d="M149.41,90.99 L188.34,110.65 L147.95,130.93 L109.75,111.75 L149.41,90.99 z" fill="#4DABCF"/>
    <path d="M201.41,63.94 L241.41,84 L205.63,101.96 L166.62,82.28 L201.41,63.94 z" fill="#4DABCF"/>
    <path d="M184.19,55.3 L148.18,37.24 L112.56,55.02 L149.67,73.73 L184.19,55.3 z" fill="#4DABCF"/>
    <path d="M156.04,210.36 L156.04,259.5 L199.66,237.73 L199.62,188.57 L156.04,210.36 z" fill="#4DABCF"/>
    <path d="M199.6,171.41 L199.55,122.77 L156.04,144.4 L156.04,193.06 L199.6,171.41 z" fill="#4DABCF"/>
    <path d="M251.97,162.3 L251.97,211.63 L214.76,230.19 L214.73,181.09 L251.97,162.3 z" fill="#4DABCF"/>
    <path d="M251.97,145.05 L251.97,96.71 L214.69,115.24 L214.72,163.98 L251.97,145.05 z" fill="#4DABCF"/>
    <path d="M140.64,144.4 L111.26,129.62 L111.26,193.46 C111.26,193.46 75.32,117 72,110.13 C71.57,109.24 69.81,108.27 69.36,108.03 C62.88,104.65 44,95.09 44,95.09 L44,207.92 L70.12,221.92 L70.12,162.92 C70.12,162.92 105.67,231.24 106.04,231.99 C106.41,232.74 109.96,239.93 113.78,242.46 C118.85,245.83 140.62,258.92 140.62,258.92 z" fill="#4D77CF"/>
  </g>
</svg>
