<svg version="1.1" xmlns="http://www.w3.org/2000/svg" xmlns:xlink="http://www.w3.org/1999/xlink" viewBox="0, 0, 40, 40">
  <g>
    <path d="M28.8,14.3 L26.7,16.4 C30.2,19.9 30.2,25.6 26.7,29.1 C23.2,32.6 17.5,32.6 14,29.1 C10.5,25.6 10.5,19.9 14,16.4 L14,16.4 L19.6,10.8 L20.3,10 L20.3,10 L20.3,5.8 L11.8,14.3 C7.1,19 7.1,26.5 11.8,31.2 C16.5,35.9 24,35.9 28.7,31.2 C33.5,26.5 33.5,18.9 28.8,14.3 z" fill="#EE4C2C"/>
    <path d="M26.2,12.1 C26.2,12.984 25.484,13.7 24.6,13.7 C23.716,13.7 23,12.984 23,12.1 C23,11.216 23.716,10.5 24.6,10.5 C25.484,10.5 26.2,11.216 26.2,12.1 z" fill="#EE4C2C"/>
  </g>
</svg>
